<svg xmlns="http://www.w3.org/2000/svg" viewBox="0 0 245 48" role="img" aria-label="AIT — Advanced Integrated Technologies L.L.C">
  <defs>
    <linearGradient id="ait-o-d" gradientUnits="userSpaceOnUse" x1="13.3" y1="25.8" x2="27.0" y2="44.7">
      <stop offset="0" stop-color="#EF8C31"/>
      <stop offset="1" stop-color="#E03E2E"/>
    </linearGradient>
    <linearGradient id="ait-b-d" gradientUnits="userSpaceOnUse" x1="68.8" y1="4.0" x2="43.5" y2="43.1">
      <stop offset="0" stop-color="#0D9CD3"/>
      <stop offset="1" stop-color="#37508F"/>
    </linearGradient>
  </defs>
  <path fill="url(#ait-o-d)" d="M21.17 47.01C20.94 46.94 20.19 46.61 19.50 46.29C17.37 45.27 14.06 42.08 11.78 38.83C11.17 37.96 10.45 36.95 10.19 36.58C9.92 36.22 9.46 35.50 9.17 35.00C8.87 34.50 8.49 33.93 8.31 33.74C8.14 33.54 7.54 32.51 6.99 31.43C6.43 30.36 5.72 29.07 5.41 28.58C5.09 28.09 4.83 27.64 4.83 27.59C4.83 27.54 4.57 27.10 4.24 26.61C3.41 25.36 3.34 24.71 3.95 24.13L4.43 23.67L12.59 23.65C18.16 23.64 20.90 23.69 21.22 23.81C21.47 23.91 21.81 24.23 21.97 24.52C22.12 24.80 22.50 25.45 22.80 25.96C23.10 26.48 23.55 27.27 23.79 27.74C24.04 28.20 24.45 28.90 24.70 29.28C24.96 29.66 25.24 30.18 25.34 30.43C25.43 30.67 25.64 31.07 25.81 31.31C25.98 31.55 26.24 32.09 26.40 32.50C26.70 33.25 29.94 38.45 30.51 39.08C30.67 39.27 31.08 39.83 31.42 40.33C32.62 42.13 34.25 43.39 38.21 45.57C38.85 45.92 38.95 46.29 38.52 46.72C38.16 47.08 38.13 47.08 29.87 47.11C25.31 47.13 21.40 47.08 21.17 47.01Z"/>
  <path fill="url(#ait-b-d)" d="M39.33 47.21C38.33 47.14 37.98 46.95 38.30 46.63C38.65 46.28 38.52 46.02 37.79 45.65C36.26 44.88 34.19 43.63 33.85 43.26L33.48 42.88L34.47 41.98C35.01 41.49 35.88 40.45 36.40 39.67C36.92 38.89 37.57 37.95 37.85 37.58C38.61 36.56 39.06 35.85 39.70 34.67C40.67 32.88 41.01 32.30 41.41 31.76C41.61 31.48 41.90 31.03 42.04 30.75C42.17 30.47 42.73 29.43 43.26 28.42C43.80 27.41 44.64 25.77 45.13 24.77C45.61 23.77 46.15 22.75 46.33 22.51C46.50 22.26 47.16 21.05 47.80 19.82C49.50 16.51 49.99 15.62 50.34 15.25C50.51 15.06 50.81 14.54 51.01 14.08C51.21 13.62 52.17 12.05 53.14 10.58C54.59 8.40 55.32 7.50 57.16 5.61C58.40 4.34 59.62 3.19 59.87 3.06C60.12 2.93 60.58 2.60 60.89 2.33C61.21 2.06 61.98 1.64 62.61 1.40C64.77 0.58 66.01 0.48 73.33 0.45C80.45 0.43 81.68 0.54 82.27 1.19C82.53 1.48 82.53 1.52 82.26 1.83C82.09 2.01 81.57 2.27 81.10 2.40C80.58 2.56 80.05 2.86 79.75 3.18C79.47 3.46 78.88 3.89 78.42 4.11C77.51 4.57 74.12 7.90 73.36 9.08C73.12 9.45 72.62 10.14 72.24 10.61C71.86 11.08 71.12 12.20 70.58 13.11C70.05 14.01 69.41 15.01 69.16 15.33C68.91 15.65 68.56 16.22 68.38 16.58C68.20 16.95 67.72 17.85 67.30 18.58C66.27 20.41 66.08 20.78 65.58 21.83C65.34 22.34 65.00 22.90 64.84 23.08C64.67 23.27 64.16 24.17 63.70 25.08C62.81 26.87 61.46 29.37 60.80 30.43C60.58 30.79 60.12 31.65 59.78 32.33C59.08 33.75 58.05 35.35 56.58 37.29C56.03 38.02 55.21 39.14 54.75 39.77C52.91 42.30 51.59 43.73 50.28 44.58C49.57 45.04 48.73 45.62 48.41 45.86C48.08 46.11 47.59 46.36 47.30 46.42C47.02 46.48 46.54 46.68 46.24 46.86C45.75 47.15 45.32 47.20 42.96 47.23C41.47 47.25 39.84 47.24 39.33 47.21ZM5.75 23.83C5.69 23.74 5.74 23.63 5.87 23.58C6.30 23.41 18.58 23.58 18.58 23.75C18.58 23.98 5.89 24.07 5.75 23.83Z"/>
  <path fill="#F4F7FB" fill-rule="nonzero" d="M83.67 26.05C83.34 25.92 82.29 25.02 82.10 24.70C82.02 24.56 81.89 24.15 81.81 23.79C81.60 22.88 81.88 21.99 82.72 20.96C83.10 20.48 83.72 19.67 84.09 19.17C84.47 18.66 85.67 17.05 86.76 15.58C87.85 14.11 88.90 12.71 89.08 12.46C90.52 10.53 92.11 8.44 92.70 7.69C93.10 7.20 93.57 6.55 93.75 6.26C94.56 4.95 96.40 3.03 97.42 2.44C99.28 1.35 102.34 1.22 104.13 2.16C105.16 2.70 106.64 3.96 107.11 4.71C107.35 5.10 107.88 5.79 108.28 6.25C108.68 6.71 109.98 8.40 111.16 10.00C113.84 13.62 114.65 14.70 115.92 16.29C116.47 16.98 117.33 18.12 117.83 18.83C118.34 19.53 119.03 20.44 119.37 20.86C120.11 21.75 120.50 22.62 120.50 23.38C120.50 24.14 119.09 25.74 118.17 26.02C116.67 26.47 115.77 25.87 113.70 23.04C112.90 21.94 111.69 20.32 111.00 19.43C110.31 18.54 109.44 17.37 109.07 16.83C108.69 16.29 108.09 15.49 107.73 15.05C107.38 14.62 106.48 13.46 105.75 12.49C102.96 8.79 102.46 8.18 101.92 7.76C101.08 7.12 100.63 7.20 99.88 8.10C99.53 8.53 98.76 9.46 98.17 10.17C97.57 10.88 96.82 11.89 96.50 12.41C96.18 12.93 95.55 13.78 95.11 14.30C94.66 14.82 94.07 15.59 93.79 16.00C93.50 16.41 92.91 17.15 92.46 17.65C92.02 18.14 91.53 18.77 91.39 19.06C91.24 19.35 90.77 20.02 90.35 20.55C89.93 21.08 89.43 21.72 89.25 21.97C87.86 23.87 86.29 25.58 85.63 25.93C85.19 26.17 84.14 26.23 83.67 26.05ZM126.92 25.85C126.22 25.42 125.76 24.86 125.46 24.08C125.23 23.49 125.20 22.20 125.24 14.08C125.27 8.05 125.35 4.60 125.46 4.32C125.56 4.08 125.87 3.66 126.15 3.37C127.41 2.11 129.23 2.29 130.39 3.78L130.96 4.50L131.05 6.88C131.13 8.95 131.12 17.42 131.03 22.46L131.00 24.17L130.30 24.93C129.92 25.35 129.39 25.80 129.14 25.93C128.51 26.26 127.51 26.22 126.92 25.85ZM155.73 25.90C155.45 25.76 154.96 25.39 154.65 25.06L154.08 24.48L154.04 18.30L153.99 12.12L154.43 10.77C154.67 10.02 154.98 9.24 155.12 9.03C155.67 8.15 155.87 8.17 146.58 8.17C137.20 8.17 137.36 8.18 136.43 7.19C135.89 6.62 135.67 5.65 135.84 4.62C136.00 3.71 136.84 2.90 137.87 2.68C139.01 2.43 175.30 2.43 175.95 2.68C176.52 2.89 177.44 3.75 177.76 4.37C178.34 5.46 177.74 7.17 176.58 7.75C175.96 8.06 175.49 8.09 169.58 8.17L163.25 8.25L162.56 8.72C161.60 9.37 160.61 10.59 160.25 11.58C159.99 12.31 159.94 13.11 159.89 17.75C159.86 20.68 159.79 23.40 159.74 23.79C159.52 25.49 157.29 26.67 155.73 25.90ZM99.58 23.33C98.43 22.78 98.01 22.29 97.60 21.06C97.34 20.27 97.34 20.11 97.57 19.24C97.85 18.13 98.72 17.12 99.64 16.82C99.97 16.71 100.74 16.66 101.45 16.71C102.67 16.78 102.70 16.80 103.53 17.60C104.87 18.90 105.15 19.98 104.48 21.25C103.96 22.25 103.18 22.99 102.19 23.43C101.06 23.94 100.81 23.93 99.58 23.33Z"/>
  <path fill="#B9D2EE" fill-rule="nonzero" d="M70.74268014547248 42.3H69.48557603402577L68.98559144424583 40.714334586697895H66.69994760525181L66.22853356345928 42.3H65.0L67.22850274301916 35.319262775072424H68.45227454848055ZM68.61417432040929 39.53818036121555 67.8284842507551 36.94778401035566 67.05231769709671 39.53818036121555ZM75.15206805153178 42.3H74.12829008198237V41.55716575232694Q73.87591690809344 41.98572397213832 73.53307033224434 42.200003082044006Q73.19022375639524 42.414282191949695 72.82833014855453 42.414282191949695Q72.13311348086052 42.414282191949695 71.6164627380879 41.72144640325463Q71.09981199531529 41.028610614559575 71.09981199531529 39.74293595512544Q71.09981199531529 38.447737779695494 71.60455834309315 37.78823429698576Q72.10930469087099 37.128730814276025 72.84737718054615 37.128730814276025Q73.19498551439315 37.128730814276025 73.49735714726006 37.30491586019848Q73.79972878012698 37.481100906120936 74.05210195401591 37.83347099796585V35.319262775072424H75.15206805153178ZM72.22358688282068 39.66198606916107Q72.22358688282068 40.34767922085927 72.34024995376933 40.68338315971152Q72.45691302471799 41.019087098563766 72.67357301362264 41.188129507489364Q72.89023300252728 41.35717191641496 73.16165320840781 41.35717191641496Q73.52354681624854 41.35717191641496 73.79020526413117 40.966707760586814Q74.05686371201381 40.57624360475867 74.05686371201381 39.79055353510448Q74.05686371201381 38.91915182148801 73.79734790112803 38.53583030265672Q73.53783209024225 38.15250878382543 73.1378444184183 38.15250878382543Q72.75690377858596 38.15250878382543 72.49024533070332 38.52868766565986Q72.22358688282068 38.904866547494294 72.22358688282068 39.66198606916107ZM77.37104727855514 42.3 75.69967022129076 37.24301300622572H76.85201565678358L77.63294396843987 39.823885841089805L77.85674659434137 40.68576403871047L78.09007273623868 39.823885841089805L78.88052456389077 37.24301300622572H80.00429945139616L78.35673118412132 42.3ZM81.49949146273809 38.78582259754669 80.5042840411761 38.5667817296431Q80.68523084509647 37.80013869198052 81.10188466991309 37.46443475312827Q81.51853849472971 37.128730814276025 82.299466806386 37.128730814276025Q82.99468347408 37.128730814276025 83.36133883991863 37.323962892190096Q83.72799420575726 37.51919497010417 83.8851322196881 37.854898908956415Q84.04227023361894 38.19060284780866 84.04227023361894 39.07628983541885L84.03274671762313 40.63814645873143Q84.03274671762313 41.29526906244221 84.08512605560007 41.61668772730074Q84.13750539357702 41.93810639215928 84.28035813351414 42.3H83.19467730999199L83.05182457005486 41.74763607224311Q82.7708808481785 42.0809591320964 82.44946218331998 42.24762066202305Q82.12804351846144 42.414282191949695 81.76614991062073 42.414282191949695Q81.1614066448869 42.414282191949695 80.77570424705665 42.007151883128884Q80.39000184922641 41.60002157430808 80.39000184922641 40.92385193860568Q80.39000184922641 40.4952937187943 80.54713986315724 40.17625593293472Q80.70427787708809 39.85721814707514 80.98998335696234 39.66674782715897Q81.2756888368366 39.4762775072428 81.90424089255994 39.32866300930777Q82.66612217222462 39.152477963385316 82.96611292609259 39.00010170745238Q82.96611292609259 38.58106700363681 82.90659095111879 38.45011865869444Q82.84706897614498 38.319170313752075 82.6875500832152 38.23583954878875Q82.5280311902854 38.15250878382543 82.23756395241324 38.15250878382543Q81.94233495654318 38.15250878382543 81.77329254761759 38.28583800776675Q81.60425013869198 38.419167231708066 81.49949146273809 38.78582259754669ZM82.96611292609259 39.87150342106885Q82.7565955741848 39.95721506503113 82.31375208037971 40.07149725698083Q81.80424397460396 40.204826480922144 81.64710596067312 40.36672625285089Q81.48996794674228 40.52862602477963 81.48996794674228 40.78576095666646Q81.48996794674228 41.076228194538615 81.66377211366579 41.27384115145164Q81.83757628058929 41.47145410836467 82.09947297047403 41.47145410836467Q82.33279911237133 41.47145410836467 82.56136349627073 41.31193521543487Q82.78992788017013 41.15241632250508 82.87802040313136 40.93337545460149Q82.96611292609259 40.714334586697895 82.96611292609259 40.138161868951485ZM88.89926339148123 42.3H87.79929729396535V39.719127165135916Q87.79929729396535 38.94296061147753 87.7373944399926 38.68582567959071Q87.67549158601985 38.428690747703875 87.50644917709425 38.290599765764654Q87.33740676816865 38.15250878382543 87.12312765826296 38.15250878382543Q86.84694569438452 38.15250878382543 86.62314306848302 38.33107470874684Q86.39934044258152 38.50964063366825 86.30886704062134 38.82391666152992Q86.21839363866115 39.1381926893916 86.21839363866115 40.00959440300807V42.3H85.1184275411453V37.24301300622572H86.13744375269678V37.98584725389878Q86.40886395857733 37.557289034087404 86.74932965542749 37.343009924181715Q87.08979535227763 37.128730814276025 87.50406829809529 37.128730814276025Q87.98500585588363 37.128730814276025 88.31594803673796 37.378723109165996Q88.6468902175923 37.62871540405597 88.77307680453677 38.021560438883064Q88.89926339148123 38.41440547371016 88.89926339148123 39.15723972138322ZM93.62768908340011 38.73820501756765 92.54677001787586 38.97629291746286Q92.42772606792825 38.18107933181285 91.7991740122049 38.18107933181285Q91.39442458238304 38.18107933181285 91.14681316649202 38.52392590766196Q90.899201750601 38.86677248351106 90.899201750601 39.68103310115268Q90.899201750601 40.58100536275658 91.14681316649202 40.95242248659311Q91.39442458238304 41.32383961042964 91.8086975282007 41.32383961042964Q92.11821179806448 41.32383961042964 92.31820563397645 41.111941379522904Q92.51819946988843 40.90004314861616 92.6039111138507 40.361964494852984L93.68483017937496 40.58576712075448Q93.35150711952167 42.414282191949695 91.76584170621956 42.414282191949695Q90.75158725266597 42.414282191949695 90.26112617888184 41.642877396289215Q89.7706651050977 40.871472600628735 89.7706651050977 39.785791777106574Q89.7706651050977 38.485831843678724 90.32540991185354 37.807281328977375Q90.88015471860938 37.128730814276025 91.78012698021328 37.128730814276025Q92.50867595389262 37.128730814276025 92.96818560069038 37.51443321210627Q93.42769524748813 37.900135609936505 93.62768908340011 38.73820501756765ZM96.86568452197497 40.69052579670837 97.95612710349504 40.91432842260987Q97.73708623559145 41.67620970227455 97.27519570979473 42.04524594711212Q96.81330518399803 42.414282191949695 96.15142082228934 42.414282191949695Q95.23240152869383 42.414282191949695 94.73241693891389 41.800015410220055Q94.14195894717376 41.085751710534424 94.14195894717376 39.80007705110029Q94.14195894717376 38.533449423657764 94.7371786969118 37.77156814399309Q95.24192504468964 37.128730814276025 96.04190038833755 37.128730814276025Q96.93234913394564 37.128730814276025 97.43709548172347 37.78585341798681Q98.01802995746779 38.53821118165567 98.01802995746779 40.00483264501017L98.01326819946989 40.157208900943104H95.26573383467915Q95.27525735067496 40.75719040867903 95.53477316156074 41.085751710534424Q95.79428897244652 41.41431301238981 96.16094433828515 41.41431301238981Q96.68949947605252 41.41431301238981 96.86568452197497 40.69052579670837ZM96.92758737594772 39.33818652530358Q96.91330210195402 38.74772853356345 96.67521420205881 38.45011865869444Q96.43712630216359 38.15250878382543 96.1085650003082 38.15250878382543Q95.7609566664612 38.15250878382543 95.52286876656599 38.4620230536892Q95.28001910867287 38.77629908155088 95.28478086667077 39.33818652530358ZM102.71312334340135 42.3H101.68934537385194V41.55716575232694Q101.43697219996301 41.98572397213832 101.0941256241139 42.200003082044006Q100.7512790482648 42.414282191949695 100.38938544042409 42.414282191949695Q99.69416877273008 42.414282191949695 99.17751802995747 41.72144640325463Q98.66086728718486 41.028610614559575 98.66086728718486 39.74293595512544Q98.66086728718486 38.447737779695494 99.16561363496271 37.78823429698576Q99.67035998274055 37.128730814276025 100.40843247241571 37.128730814276025Q100.75604080626272 37.128730814276025 101.05841243912963 37.30491586019848Q101.36078407199655 37.481100906120936 101.61315724588547 37.83347099796585V35.319262775072424H102.71312334340135ZM99.78464217469025 39.66198606916107Q99.78464217469025 40.34767922085927 99.9013052456389 40.68338315971152Q100.01796831658756 41.019087098563766 100.23462830549221 41.188129507489364Q100.45128829439685 41.35717191641496 100.72270850027738 41.35717191641496Q101.0846021081181 41.35717191641496 101.35126055600074 40.966707760586814Q101.61791900388337 40.57624360475867 101.61791900388337 39.79055353510448Q101.61791900388337 38.91915182148801 101.3584031929976 38.53583030265672Q101.09888738211181 38.15250878382543 100.69889971028786 38.15250878382543Q100.31795907045553 38.15250878382543 100.05130062257288 38.52868766565986Q99.78464217469025 38.904866547494294 99.78464217469025 39.66198606916107ZM105.98921284595944 42.3V35.319262775072424H107.14155828145226V42.3ZM112.01283671330826 42.3H110.91287061579239V39.719127165135916Q110.91287061579239 38.94296061147753 110.85096776181963 38.68582567959071Q110.78906490784688 38.428690747703875 110.62002249892129 38.290599765764654Q110.45098008999568 38.15250878382543 110.23670098008999 38.15250878382543Q109.96051901621155 38.15250878382543 109.73671639031005 38.33107470874684Q109.51291376440855 38.50964063366825 109.42244036244837 38.82391666152992Q109.33196696048819 39.1381926893916 109.33196696048819 40.00959440300807V42.3H108.23200086297233V37.24301300622572H109.25101707452382V37.98584725389878Q109.52243728040436 37.557289034087404 109.86290297725452 37.343009924181715Q110.20336867410467 37.128730814276025 110.61764161992232 37.128730814276025Q111.09857917771066 37.128730814276025 111.429521358565 37.378723109165996Q111.76046353941933 37.62871540405597 111.8866501263638 38.021560438883064Q112.01283671330826 38.41440547371016 112.01283671330826 39.15723972138322ZM115.02226776798372 37.24301300622572V38.30964679775627H114.27467176231276V40.34767922085927Q114.27467176231276 41.00956358256796 114.30800406829809 41.11432225852185Q114.37466868026875 41.30479257843802 114.57942427417863 41.30479257843802Q114.73180053011157 41.30479257843802 115.01750600998582 41.176225112494606L115.1127411699439 42.21428835603772Q114.73180053011157 42.414282191949695 114.25086297232325 42.414282191949695Q113.83182826850768 42.414282191949695 113.57945509461875 42.21428835603772Q113.32708192072982 42.014294520125745 113.24137027676755 41.63811563829131Q113.17470566479689 41.36193367441287 113.17470566479689 40.51434075078592V38.30964679775627H112.66995931701905V37.24301300622572H113.17470566479689V36.238282068667935L114.27467176231276 35.457353757011646V37.24301300622572ZM118.19359859458793 40.69052579670837 119.28404117610799 40.91432842260987Q119.0650003082044 41.67620970227455 118.6031097824077 42.04524594711212Q118.14121925661098 42.414282191949695 117.4793348949023 42.414282191949695Q116.56031560130678 42.414282191949695 116.06033101152684 41.800015410220055Q115.46987301978672 41.085751710534424 115.46987301978672 39.80007705110029Q115.46987301978672 38.533449423657764 116.06509276952475 37.77156814399309Q116.56983911730259 37.128730814276025 117.3698144609505 37.128730814276025Q118.26026320655859 37.128730814276025 118.76500955433643 37.78585341798681Q119.34594403008074 38.53821118165567 119.34594403008074 40.00483264501017L119.34118227208285 40.157208900943104H116.59364790729211Q116.60317142328792 40.75719040867903 116.8626872341737 41.085751710534424Q117.12220304505948 41.41431301238981 117.4888584108981 41.41431301238981Q118.01741354866547 41.41431301238981 118.19359859458793 40.69052579670837ZM118.25550144856068 39.33818652530358Q118.24121617456697 38.74772853356345 118.00312827467175 38.45011865869444Q117.76504037477655 38.15250878382543 117.43647907292116 38.15250878382543Q117.08887073907415 38.15250878382543 116.85078283917895 38.4620230536892Q116.60793318128583 38.77629908155088 116.61269493928373 39.33818652530358ZM120.13163409973494 42.63332305985329 121.38873821118165 42.81903162177156Q121.41730875916907 43.09521358565 121.56254237810515 43.211876656598655Q121.70777599704124 43.32853972754731 122.02205202490292 43.32853972754731Q122.38394563274363 43.32853972754731 122.60774825864513 43.2094957775997Q122.76488627257596 43.12378413363743 122.85059791653825 42.923790297725446Q122.93630956050052 42.72379646181347 122.93630956050052 42.219050114035625V41.48097762436047Q122.6886981446095 41.89048881218024 122.37918387474573 42.09524440609012Q122.06966960488195 42.3 121.69349072304752 42.3Q121.00303581335142 42.3 120.53162177155889 41.67620970227455Q119.98878135979781 40.96194600258892 119.98878135979781 39.74293595512544Q119.98878135979781 38.447737779695494 120.50067034457251 37.78823429698576Q121.01255932934723 37.128730814276025 121.74110830302656 37.128730814276025Q122.12681070085681 37.128730814276025 122.44346760771744 37.333486408185905Q122.76012451457807 37.538242002095785 123.00773593046908 37.95251494791346V37.24301300622572H124.0362756580164V41.78096837822844Q124.0362756580164 42.8714109597485 123.83628182210441 43.361872033532634Q123.63628798619244 43.85233310731677 123.21963416137582 44.10232540220674Q122.8029803365592 44.35231769709671 122.06490784688405 44.35231769709671Q121.38397645318375 44.35231769709671 120.97446526536399 44.171370893176345Q120.56495407754423 43.99042408925599 120.34829408863959 43.63091136041422Q120.13163409973494 43.27139863157245 120.13163409973494 42.79998458977994ZM121.1125562473032 39.66674782715897Q121.1125562473032 40.47624668680268 121.37207205818899 40.84766381063921Q121.63158786907476 41.21908093447574 121.99824323491339 41.21908093447574Q122.39346914873944 41.21908093447574 122.67441287061578 40.84290205264131Q122.95535659249214 40.46672317080688 122.95535659249214 39.7000801331443Q122.95535659249214 38.9096283054922 122.68631726561054 38.531068544658815Q122.41727793872896 38.15250878382543 122.02205202490292 38.15250878382543Q121.63158786907476 38.15250878382543 121.37207205818899 38.52392590766196Q121.1125562473032 38.895343031498484 121.1125562473032 39.66674782715897ZM126.17430499907539 42.3H125.07433890155951V37.24301300622572H126.09335511311102V37.96203846390926Q126.35525180299574 37.45729211613141 126.56238827590457 37.29301146520372Q126.76952474881341 37.128730814276025 127.04094495469396 37.128730814276025Q127.41712383652839 37.128730814276025 127.75997041237748 37.38110398816495L127.41712383652839 38.54773469765148Q127.14570363064784 38.328693829747884 126.90285397275473 38.328693829747884Q126.67428958885533 38.328693829747884 126.50048542193183 38.49773623867348Q126.32668125500832 38.66677864759909 126.25049312704186 39.109622141404174Q126.17430499907539 39.552465635209266 126.17430499907539 40.73814337668742ZM129.05040682980953 38.78582259754669 128.05519940824755 38.5667817296431Q128.2361462121679 37.80013869198052 128.65280003698453 37.46443475312827Q129.06945386180115 37.128730814276025 129.85038217345743 37.128730814276025Q130.54559884115145 37.128730814276025 130.91225420699007 37.323962892190096Q131.2789095728287 37.51919497010417 131.43604758675954 37.854898908956415Q131.5931856006904 38.19060284780866 131.5931856006904 39.07628983541885L131.58366208469457 40.63814645873143Q131.58366208469457 41.29526906244221 131.6360414226715 41.61668772730074Q131.68842076064846 41.93810639215928 131.83127350058558 42.3H130.74559267706343L130.6027399371263 41.74763607224311Q130.32179621524995 42.0809591320964 130.00037755039142 42.24762066202305Q129.6789588855329 42.414282191949695 129.31706527769217 42.414282191949695Q128.71232201195832 42.414282191949695 128.32661961412808 42.007151883128884Q127.94091721629785 41.60002157430808 127.94091721629785 40.92385193860568Q127.94091721629785 40.4952937187943 128.09805523022868 40.17625593293472Q128.25519324415953 39.85721814707514 128.54089872403378 39.66674782715897Q128.82660420390803 39.4762775072428 129.4551562596314 39.32866300930777Q130.21703753929606 39.152477963385316 130.51702829316403 39.00010170745238Q130.51702829316403 38.58106700363681 130.4575063181902 38.45011865869444Q130.39798434321642 38.319170313752075 130.23846545028664 38.23583954878875Q130.07894655735683 38.15250878382543 129.78847931948468 38.15250878382543Q129.49325032361463 38.15250878382543 129.32420791468903 38.28583800776675Q129.15516550576342 38.419167231708066 129.05040682980953 38.78582259754669ZM130.51702829316403 39.87150342106885Q130.30751094125625 39.95721506503113 129.86466744745115 40.07149725698083Q129.3551593416754 40.204826480922144 129.19802132774456 40.36672625285089Q129.0408833138137 40.52862602477963 129.0408833138137 40.78576095666646Q129.0408833138137 41.076228194538615 129.2146874807372 41.27384115145164Q129.38849164766071 41.47145410836467 129.65038833754545 41.47145410836467Q129.88371447944277 41.47145410836467 130.11227886334217 41.31193521543487Q130.34084324724157 41.15241632250508 130.4289357702028 40.93337545460149Q130.51702829316403 40.714334586697895 130.51702829316403 40.138161868951485ZM134.57404610737842 37.24301300622572V38.30964679775627H133.82645010170745V40.34767922085927Q133.82645010170745 41.00956358256796 133.8597824076928 41.11432225852185Q133.92644701966344 41.30479257843802 134.13120261357332 41.30479257843802Q134.28357886950627 41.30479257843802 134.56928434938052 41.176225112494606L134.66451950933862 42.21428835603772Q134.28357886950627 42.414282191949695 133.80264131171793 42.414282191949695Q133.38360660790238 42.414282191949695 133.13123343401344 42.21428835603772Q132.87886026012453 42.014294520125745 132.79314861616226 41.63811563829131Q132.7264840041916 41.36193367441287 132.7264840041916 40.51434075078592V38.30964679775627H132.22173765641375V37.24301300622572H132.7264840041916V36.238282068667935L133.82645010170745 35.457353757011646V37.24301300622572ZM137.7453769339826 40.69052579670837 138.8358195155027 40.91432842260987Q138.6167786475991 41.67620970227455 138.1548881218024 42.04524594711212Q137.69299759600568 42.414282191949695 137.03111323429698 42.414282191949695Q136.11209394070147 42.414282191949695 135.61210935092154 41.800015410220055Q135.02165135918142 41.085751710534424 135.02165135918142 39.80007705110029Q135.02165135918142 38.533449423657764 135.61687110891944 37.77156814399309Q136.1216174566973 37.128730814276025 136.9215928003452 37.128730814276025Q137.81204154595326 37.128730814276025 138.31678789373112 37.78585341798681Q138.89772236947545 38.53821118165567 138.89772236947545 40.00483264501017L138.89296061147752 40.157208900943104H136.1454262466868Q136.1549497626826 40.75719040867903 136.4144655735684 41.085751710534424Q136.67398138445418 41.41431301238981 137.0406367502928 41.41431301238981Q137.56919188806015 41.41431301238981 137.7453769339826 40.69052579670837ZM137.80727978795537 39.33818652530358Q137.79299451396164 38.74772853356345 137.55490661406645 38.45011865869444Q137.31681871417123 38.15250878382543 136.98825741231585 38.15250878382543Q136.64064907846884 38.15250878382543 136.40256117857362 38.4620230536892Q136.1597115206805 38.77629908155088 136.16447327867843 39.33818652530358ZM143.592815755409 42.3H142.5690377858596V41.55716575232694Q142.31666461197065 41.98572397213832 141.97381803612154 42.200003082044006Q141.63097146027246 42.414282191949695 141.26907785243174 42.414282191949695Q140.57386118473772 42.414282191949695 140.0572104419651 41.72144640325463Q139.5405596991925 41.028610614559575 139.5405596991925 39.74293595512544Q139.5405596991925 38.447737779695494 140.04530604697035 37.78823429698576Q140.5500523947482 37.128730814276025 141.28812488442335 37.128730814276025Q141.63573321827036 37.128730814276025 141.93810485113727 37.30491586019848Q142.24047648400418 37.481100906120936 142.49284965789312 37.83347099796585V35.319262775072424H143.592815755409ZM140.6643345866979 39.66198606916107Q140.6643345866979 40.34767922085927 140.78099765764654 40.68338315971152Q140.8976607285952 41.019087098563766 141.11432071749985 41.188129507489364Q141.3309807064045 41.35717191641496 141.60240091228502 41.35717191641496Q141.96429452012575 41.35717191641496 142.23095296800838 40.966707760586814Q142.49761141589101 40.57624360475867 142.49761141589101 39.79055353510448Q142.49761141589101 38.91915182148801 142.23809560500524 38.53583030265672Q141.97857979411947 38.15250878382543 141.5785921222955 38.15250878382543Q141.19765148246316 38.15250878382543 140.93099303458052 38.52868766565986Q140.6643345866979 38.904866547494294 140.6643345866979 39.66198606916107ZM148.19267398138444 42.3V36.50017875855267H146.49272637613262V35.319262775072424H151.04020526413115V36.50017875855267H149.34501941687725V42.3ZM153.60203106700362 40.69052579670837 154.6924736485237 40.91432842260987Q154.4734327806201 41.67620970227455 154.01154225482338 42.04524594711212Q153.5496517290267 42.414282191949695 152.887767367318 42.414282191949695Q151.96874807372248 42.414282191949695 151.46876348394255 41.800015410220055Q150.87830549220243 41.085751710534424 150.87830549220243 39.80007705110029Q150.87830549220243 38.533449423657764 151.47352524194045 37.77156814399309Q151.9782715897183 37.128730814276025 152.7782469333662 37.128730814276025Q153.66869567897427 37.128730814276025 154.17344202675213 37.78585341798681Q154.75437650249646 38.53821118165567 154.75437650249646 40.00483264501017L154.74961474449853 40.157208900943104H152.00208037970782Q152.01160389570362 40.75719040867903 152.2711197065894 41.085751710534424Q152.5306355174752 41.41431301238981 152.89729088331381 41.41431301238981Q153.42584602108116 41.41431301238981 153.60203106700362 40.69052579670837ZM153.66393392097638 39.33818652530358Q153.64964864698266 38.74772853356345 153.41156074708744 38.45011865869444Q153.17347284719224 38.15250878382543 152.84491154533686 38.15250878382543Q152.49730321148985 38.15250878382543 152.25921531159463 38.4620230536892Q152.0163656537015 38.77629908155088 152.02112741169944 39.33818652530358ZM159.25899956851381 38.73820501756765 158.17808050298956 38.97629291746286Q158.05903655304198 38.18107933181285 157.43048449731862 38.18107933181285Q157.02573506749675 38.18107933181285 156.77812365160574 38.52392590766196Q156.53051223571472 38.86677248351106 156.53051223571472 39.68103310115268Q156.53051223571472 40.58100536275658 156.77812365160574 40.95242248659311Q157.02573506749675 41.32383961042964 157.4400080133144 41.32383961042964Q157.74952228317818 41.32383961042964 157.94951611909016 41.111941379522904Q158.14950995500215 40.90004314861616 158.23522159896442 40.361964494852984L159.31614066448867 40.58576712075448Q158.9828176046354 42.414282191949695 157.39715219133328 42.414282191949695Q156.38289773777967 42.414282191949695 155.89243666399554 41.642877396289215Q155.4019755902114 40.871472600628735 155.4019755902114 39.785791777106574Q155.4019755902114 38.485831843678724 155.95672039696726 37.807281328977375Q156.5114652037231 37.128730814276025 157.411437465327 37.128730814276025Q158.13998643900635 37.128730814276025 158.5994960858041 37.51443321210627Q159.05900573260186 37.900135609936505 159.25899956851381 38.73820501756765ZM161.18751155766503 35.319262775072424V37.88585033594279Q161.44940824754977 37.50490969611046 161.7660651544104 37.31682025519324Q162.08272206127103 37.128730814276025 162.45413918510755 37.128730814276025Q162.94936201688958 37.128730814276025 163.2826850767429 37.39062750416076Q163.61600813659618 37.65252419404549 163.7588608765333 38.13346175183381Q163.8636195524872 38.485831843678724 163.8636195524872 39.33342476730567V42.3H162.76841521296922V39.628653763175734Q162.76841521296922 38.700110953584414 162.64937126302164 38.466784811687106Q162.48270973309496 38.15250878382543 162.08272206127103 38.15250878382543Q161.65892559945755 38.15250878382543 161.4232185785613 38.492974480675585Q161.18751155766503 38.83344017752573 161.18751155766503 39.766744745114956V42.3H160.08754546014916V35.319262775072424ZM168.74918325833693 42.3H167.64921716082105V39.719127165135916Q167.64921716082105 38.94296061147753 167.5873143068483 38.68582567959071Q167.52541145287555 38.428690747703875 167.35636904394994 38.290599765764654Q167.18732663502436 38.15250878382543 166.97304752511866 38.15250878382543Q166.69686556124023 38.15250878382543 166.47306293533873 38.33107470874684Q166.24926030943723 38.50964063366825 166.15878690747707 38.82391666152992Q166.06831350551687 39.1381926893916 166.06831350551687 40.00959440300807V42.3H164.968347408001V37.24301300622572H165.9873636195525V37.98584725389878Q166.25878382543303 37.557289034087404 166.59924952228317 37.343009924181715Q166.93971521913332 37.128730814276025 167.353988164951 37.128730814276025Q167.8349257227393 37.128730814276025 168.16586790359366 37.378723109165996Q168.49681008444801 37.62871540405597 168.62299667139246 38.021560438883064Q168.74918325833693 38.41440547371016 168.74918325833693 39.15723972138322ZM169.6062996979597 39.7000801331443Q169.6062996979597 38.957245885471245 169.9015286938298 38.34774086173951Q170.19675768969984 37.73823583800777 170.67293348949025 37.433483326141896Q171.14910928928066 37.128730814276025 171.74432903901868 37.128730814276025Q172.74429821857856 37.128730814276025 173.3157091783271 37.91204000493127Q173.8871201380756 38.69534919558651 173.8871201380756 39.74293595512544Q173.8871201380756 40.52386426678173 173.5895102632066 41.15241632250508Q173.29190038833755 41.78096837822844 172.80858195155028 42.097625285089066Q172.325263514763 42.414282191949695 171.7490907970166 42.414282191949695Q170.82530974542317 42.414282191949695 170.21580472169143 41.709542008259874Q169.6062996979597 41.00480182457005 169.6062996979597 39.7000801331443ZM170.7300745854651 39.77150650311286Q170.7300745854651 40.53814954077544 171.03006533933308 40.93099457560254Q171.33005609320102 41.32383961042964 171.7538525550145 41.32383961042964Q172.16812550083216 41.32383961042964 172.4633544967022 40.92861369660359Q172.75858349257228 40.53338778277754 172.75858349257228 39.76198298711705Q172.75858349257228 39.00962522344819 172.45859273870434 38.614399309622144Q172.15860198483637 38.21917339579609 171.73956728102078 38.21917339579609Q171.32529433520313 38.21917339579609 171.02768446033411 38.614399309622144Q170.7300745854651 39.00962522344819 170.7300745854651 39.77150650311286ZM174.74899833569623 42.3V35.319262775072424H175.8489644332121V42.3ZM176.71560438883068 39.7000801331443Q176.71560438883068 38.957245885471245 177.01083338470073 38.34774086173951Q177.3060623805708 37.73823583800777 177.78223818036122 37.433483326141896Q178.25841398015163 37.128730814276025 178.85363372988965 37.128730814276025Q179.85360290944953 37.128730814276025 180.42501386919804 37.91204000493127Q180.99642482894654 38.69534919558651 180.99642482894654 39.74293595512544Q180.99642482894654 40.52386426678173 180.69881495407753 41.15241632250508Q180.40120507920852 41.78096837822844 179.91788664242125 42.097625285089066Q179.43456820563398 42.414282191949695 178.85839548788758 42.414282191949695Q177.93461443629414 42.414282191949695 177.32510941256243 41.709542008259874Q176.71560438883068 41.00480182457005 176.71560438883068 39.7000801331443ZM177.83937927633608 39.77150650311286Q177.83937927633608 40.53814954077544 178.13937003020402 40.93099457560254Q178.439360784072 41.32383961042964 178.86315724588547 41.32383961042964Q179.27743019170313 41.32383961042964 179.5726591875732 40.92861369660359Q179.86788818344326 40.53338778277754 179.86788818344326 39.76198298711705Q179.86788818344326 39.00962522344819 179.56789742957528 38.614399309622144Q179.26790667570734 38.21917339579609 178.84887197189175 38.21917339579609Q178.4345990260741 38.21917339579609 178.13698915120509 38.614399309622144Q177.83937927633608 39.00962522344819 177.83937927633608 39.77150650311286ZM181.7535443506133 42.63332305985329 183.01064846206003 42.81903162177156Q183.03921901004745 43.09521358565 183.18445262898354 43.211876656598655Q183.3296862479196 43.32853972754731 183.6439622757813 43.32853972754731Q184.00585588362202 43.32853972754731 184.22965850952352 43.2094957775997Q184.38679652345434 43.12378413363743 184.4725081674166 42.923790297725446Q184.5582198113789 42.72379646181347 184.5582198113789 42.219050114035625V41.48097762436047Q184.31060839548786 41.89048881218024 184.0010941256241 42.09524440609012Q183.69157985576032 42.3 183.3154009739259 42.3Q182.6249460642298 42.3 182.15353202243728 41.67620970227455Q181.61069161067618 40.96194600258892 181.61069161067618 39.74293595512544Q181.61069161067618 38.447737779695494 182.12258059545087 37.78823429698576Q182.63446958022558 37.128730814276025 183.36301855390494 37.128730814276025Q183.74872095173518 37.128730814276025 184.0653778585958 37.333486408185905Q184.38203476545644 37.538242002095785 184.62964618134745 37.95251494791346V37.24301300622572H185.65818590889478V41.78096837822844Q185.65818590889478 42.8714109597485 185.4581920729828 43.361872033532634Q185.25819823707081 43.85233310731677 184.8415444122542 44.10232540220674Q184.42489058743757 44.35231769709671 183.68681809776243 44.35231769709671Q183.0058867040621 44.35231769709671 182.59637551624235 44.171370893176345Q182.1868643284226 43.99042408925599 181.97020433951795 43.63091136041422Q181.7535443506133 43.27139863157245 181.7535443506133 42.79998458977994ZM182.73446649818158 39.66674782715897Q182.73446649818158 40.47624668680268 182.99398230906735 40.84766381063921Q183.25349811995315 41.21908093447574 183.62015348579177 41.21908093447574Q184.0153793996178 41.21908093447574 184.29632312149417 40.84290205264131Q184.57726684337052 40.46672317080688 184.57726684337052 39.7000801331443Q184.57726684337052 38.9096283054922 184.30822751648893 38.531068544658815Q184.03918818960733 38.15250878382543 183.6439622757813 38.15250878382543Q183.25349811995315 38.15250878382543 182.99398230906735 38.52392590766196Q182.73446649818158 38.895343031498484 182.73446649818158 39.66674782715897ZM186.74386673241693 36.55731985452752V35.319262775072424H187.8438328299328V36.55731985452752ZM186.74386673241693 42.3V37.24301300622572H187.8438328299328V42.3ZM191.37229550637983 40.69052579670837 192.4627380878999 40.91432842260987Q192.2436972199963 41.67620970227455 191.7818066941996 42.04524594711212Q191.3199161684029 42.414282191949695 190.6580318066942 42.414282191949695Q189.7390125130987 42.414282191949695 189.23902792331876 41.800015410220055Q188.64856993157863 41.085751710534424 188.64856993157863 39.80007705110029Q188.64856993157863 38.533449423657764 189.24378968131666 37.77156814399309Q189.7485360290945 37.128730814276025 190.5485113727424 37.128730814276025Q191.43896011835048 37.128730814276025 191.94370646612833 37.78585341798681Q192.52464094187266 38.53821118165567 192.52464094187266 40.00483264501017L192.51987918387474 40.157208900943104H189.77234481908403Q189.78186833507982 40.75719040867903 190.0413841459656 41.085751710534424Q190.3008999568514 41.41431301238981 190.66755532269002 41.41431301238981Q191.19611046045736 41.41431301238981 191.37229550637983 40.69052579670837ZM191.43419836035258 39.33818652530358Q191.41991308635886 38.74772853356345 191.18182518646364 38.45011865869444Q190.94373728656845 38.15250878382543 190.61517598471306 38.15250878382543Q190.26756765086606 38.15250878382543 190.02947975097084 38.4620230536892Q189.78663009307772 38.77629908155088 189.79139185107564 39.33818652530358ZM193.0293872896505 40.85718732663502 194.12935338716636 40.65243173272514Q194.2722061271035 41.447645318375145 195.01504037477656 41.447645318375145Q195.4102662886026 41.447645318375145 195.60549836651666 41.29526906244221Q195.80073044443074 41.14289280650927 195.80073044443074 40.90004314861616Q195.80073044443074 40.73338161868951 195.71501880046847 40.63814645873143Q195.6245453985083 40.54291129877334 195.35788695062564 40.47148492880478Q194.00554767922085 40.11435307896196 193.63889231338223 39.79055353510448Q193.18176354558344 39.385804105282624 193.18176354558344 38.681063921592795Q193.18176354558344 37.97632373790297 193.62936879738643 37.5525272760895Q194.07697404918943 37.128730814276025 194.92932873081426 37.128730814276025Q195.74358934845588 37.128730814276025 196.16738581026937 37.445387721136655Q196.59118227208285 37.762044627997284 196.7626055600074 38.466784811687106L195.7293040744622 38.700110953584414Q195.59121309252296 38.09060592985268 194.94837576280588 38.09060592985268Q194.54362633298405 38.09060592985268 194.3722030450595 38.20726900080133Q194.20077975713494 38.32393207174998 194.20077975713494 38.50964063366825Q194.20077975713494 38.67630216359489 194.35791777106576 38.78582259754669Q194.5150557849966 38.90010478949639 195.33407816063612 39.12866917339579Q196.25309745423164 39.385804105282624 196.58165875608702 39.75245947112124Q196.9054582999445 40.11911483695987 196.9054582999445 40.72861986069161Q196.9054582999445 41.46193059236886 196.40309283116562 41.93810639215928Q195.90072736238673 42.414282191949695 195.01504037477656 42.414282191949695Q194.21030327313073 42.414282191949695 193.70079516735498 42.01667539912469Q193.19128706157923 41.61906860629969 193.0293872896505 40.85718732663502ZM200.12440670652776 42.3V35.37640387104727H201.2767521420206V41.123845774517655H204.15285397275474V42.3ZM204.97187634839423 42.3V40.96194600258892H206.0718424459101V42.3ZM207.23371139739874 42.3V35.37640387104727H208.38605683289157V41.123845774517655H211.2621586636257V42.3ZM212.08118103926523 42.3V40.96194600258892H213.1811471367811V42.3ZM217.97623744067064 39.73341243912963 219.09525057017814 40.16673241693891Q218.8333538802934 41.338124884423344 218.22384885656166 41.87858441718547Q217.61434383282992 42.4190439499476 216.72389508722185 42.4190439499476Q215.60488195771435 42.4190439499476 214.90966529002034 41.55716575232694Q214.10968994637244 40.56195833076496 214.10968994637244 38.87153424150897Q214.10968994637244 37.08587499229489 214.91442704801824 36.0763822967392Q215.61440547371015 35.20021882512482 216.7953214571904 35.20021882512482Q217.75719657276704 35.20021882512482 218.40479566048202 35.8573414288356Q218.86668618627874 36.32399371263021 219.08096529618442 37.24301300622572L217.9381433766874 37.57633606607902Q217.82862294273562 37.00968686432842 217.5024425198792 36.70731523146151Q217.17626209702274 36.404943598594585 216.73341860321764 36.404943598594585Q216.10010478949638 36.404943598594585 215.70011711767245 36.95730752635147Q215.30012944584848 37.509671454108364 215.30012944584848 38.781060839548786Q215.30012944584848 40.100067804968255 215.69059360167662 40.657193490723046Q216.08105775750477 41.21431917647784 216.70484805523023 41.21431917647784Q217.16197682302902 41.21431917647784 217.4952998828823 40.85956820563398Q217.82862294273562 40.50481723479011 217.97623744067064 39.73341243912963Z"/>
</svg>
